<?xml version="1.0" encoding="UTF-8" standalone="no"?>
<!-- Created with Inkscape (http://www.inkscape.org/) -->

<svg
   width="24"
   height="24"
   viewBox="0 0 16.370256 14.33574"
   version="1.1"
   id="svg5"
   xml:space="preserve"
   inkscape:version="1.3 (0e150ed, 2023-07-21)"
   sodipodi:docname="tactics_icon.svg"
   inkscape:export-filename="blast_icon.svg"
   inkscape:export-xdpi="96"
   inkscape:export-ydpi="96"
   xmlns:inkscape="http://www.inkscape.org/namespaces/inkscape"
   xmlns:sodipodi="http://sodipodi.sourceforge.net/DTD/sodipodi-0.dtd"
   xmlns="http://www.w3.org/2000/svg"
   xmlns:svg="http://www.w3.org/2000/svg"><sodipodi:namedview
     id="namedview7"
     pagecolor="#ffffff"
     bordercolor="#000000"
     borderopacity="0.25"
     inkscape:showpageshadow="2"
     inkscape:pageopacity="0.0"
     inkscape:pagecheckerboard="0"
     inkscape:deskcolor="#d1d1d1"
     inkscape:document-units="mm"
     showgrid="false"
     inkscape:zoom="24.639208"
     inkscape:cx="10.755216"
     inkscape:cy="12.764209"
     inkscape:window-width="1728"
     inkscape:window-height="966"
     inkscape:window-x="0"
     inkscape:window-y="38"
     inkscape:window-maximized="0"
     inkscape:current-layer="layer1" /><defs
     id="defs2"><inkscape:path-effect
       effect="bspline"
       id="path-effect1207"
       is_visible="true"
       lpeversion="1"
       weight="33.333333"
       steps="2"
       helper_size="0"
       apply_no_weight="true"
       apply_with_weight="true"
       only_selected="false"
       uniform="false" /><inkscape:path-effect
       effect="bspline"
       id="path-effect1145"
       is_visible="true"
       lpeversion="1"
       weight="33.333333"
       steps="2"
       helper_size="0"
       apply_no_weight="true"
       apply_with_weight="true"
       only_selected="false"
       uniform="false" /></defs><g
     inkscape:label="Layer 1"
     inkscape:groupmode="layer"
     id="layer1"
     transform="translate(-94.203743,-126.18555)"><path
       style="opacity:0;fill:#1a1a1a;stroke-width:0.264583"
       d="m 94.203743,133.34169 4.069179,-7.13275 8.255288,0.0234 4.02241,7.13276 -4.13934,7.13275 -8.161745,0.0234 z"
       id="path1078" /><path
       style="opacity:0;fill:#ffffff;stroke-width:0.264583"
       d="m 101.98366,138.39894 c -0.0778,-0.006 -0.23372,-0.0175 -0.39741,-0.0701 -0.1637,-0.0525 -0.33519,-0.14609 -0.46387,-0.25711 -0.12869,-0.11102 -0.21443,-0.23963 -0.26519,-0.37996 -0.0508,-0.14032 -0.0664,-0.29233 -0.0839,-0.47163 -0.0175,-0.17929 -0.037,-0.38586 -0.0663,-0.61388 -0.0292,-0.22801 -0.0682,-0.47746 -0.1208,-0.70741 -0.0526,-0.22996 -0.11885,-0.44043 -0.17529,-0.57102 -0.0564,-0.13059 -0.10322,-0.18128 -0.2903,-0.21259 -0.187079,-0.0313 -0.514477,-0.043 -0.717149,-0.0799 -0.202672,-0.0369 -0.280623,-0.0993 -0.315858,-0.17335 -0.03523,-0.0741 -0.02744,-0.15979 0.0194,-0.22425 0.04684,-0.0645 0.132592,-0.10733 0.208588,-0.14631 0.07599,-0.039 0.14226,-0.074 0.190907,-0.13632 0.04865,-0.0623 0.07982,-0.1519 0.06244,-0.2298 -0.01738,-0.0779 -0.08364,-0.14415 -0.153777,-0.20265 -0.07014,-0.0585 -0.144195,-0.10916 -0.226041,-0.14432 -0.08185,-0.0352 -0.171494,-0.0547 -0.239887,-0.0157 -0.06839,0.039 -0.115165,0.13643 -0.169684,0.21041 -0.05452,0.074 -0.1169,0.12467 -0.194845,0.18702 -0.07794,0.0624 -0.171501,0.13643 -0.278611,0.1871 -0.10711,0.0507 -0.227914,0.078 -0.336994,0.0683 -0.109079,-0.01 -0.20653,-0.0564 -0.290384,-0.13235 -0.08386,-0.0759 -0.154013,-0.18116 -0.224159,-0.27667 -0.07015,-0.0955 -0.140293,-0.18124 -0.179379,-0.27478 -0.03909,-0.0935 -0.04688,-0.19489 -0.02743,-0.29243 0.01945,-0.0975 0.06622,-0.19107 0.140385,-0.2535 0.07417,-0.0624 0.175514,-0.0936 0.296333,-0.13258 0.120819,-0.039 0.261142,-0.0857 0.401398,-0.16174 0.140256,-0.076 0.280571,-0.18123 0.366283,-0.2533 0.08571,-0.0721 0.116904,-0.11106 0.19492,-0.16177 0.07801,-0.0507 0.202738,-0.11307 0.302082,-0.17931 0.09934,-0.0662 0.173397,-0.13639 0.229885,-0.23375 0.05649,-0.0974 0.09546,-0.22208 0.138353,-0.3118 0.04289,-0.0897 0.08966,-0.14428 0.173568,-0.18525 0.0839,-0.041 0.204729,-0.0683 0.335307,-0.0975 0.130578,-0.0292 0.270901,-0.0604 0.381901,-0.10715 0.11099,-0.0468 0.19285,-0.10913 0.25712,-0.18896 0.0643,-0.0798 0.11104,-0.17727 0.15975,-0.28444 0.0487,-0.10718 0.0994,-0.22412 0.16957,-0.33331 0.0702,-0.10918 0.15983,-0.21053 0.24173,-0.28071 0.0819,-0.0702 0.15598,-0.10918 0.20854,-0.14618 0.0526,-0.037 0.0837,-0.0721 0.0915,-0.14403 0.008,-0.072 -0.008,-0.1811 0.008,-0.26892 0.0156,-0.0878 0.0623,-0.15408 0.1443,-0.19896 0.082,-0.0449 0.19889,-0.0683 0.28856,-0.08 0.0897,-0.0117 0.15206,-0.0117 0.19682,0.0236 0.0448,0.0352 0.072,0.10538 0.0956,0.14428 0.0235,0.0389 0.043,0.0467 0.0974,0.0174 0.0545,-0.0293 0.1441,-0.0956 0.19473,-0.15196 0.0506,-0.0564 0.0623,-0.10321 0.15208,-0.16373 0.0897,-0.0605 0.25733,-0.13458 0.36653,-0.15395 0.10921,-0.0194 0.15991,0.0157 0.17339,0.0742 0.0135,0.0584 -0.01,0.14031 -0.0117,0.20076 -0.002,0.0605 0.0177,0.0994 -0.0136,0.16168 -0.0312,0.0622 -0.1131,0.14798 -0.19884,0.23177 -0.0857,0.0838 -0.17538,0.16564 -0.26308,0.24554 -0.0877,0.0799 -0.17345,0.15786 -0.25137,0.2202 -0.0779,0.0623 -0.14809,0.10912 -0.22802,0.1754 -0.0799,0.0663 -0.16958,0.15203 -0.19677,0.21842 -0.0272,0.0664 0.008,0.11319 0.10337,0.10912 0.0955,-0.004 0.25137,-0.0586 0.37797,-0.13655 0.1266,-0.0779 0.22404,-0.17926 0.31952,-0.28255 0.0955,-0.10328 0.18903,-0.20852 0.28649,-0.30793 0.0975,-0.0994 0.19879,-0.19295 0.29037,-0.29425 0.0916,-0.10131 0.17342,-0.21045 0.22992,-0.302 0.0565,-0.0916 0.0877,-0.16561 0.12664,-0.23775 0.039,-0.0721 0.0858,-0.1423 0.1833,-0.20082 0.0975,-0.0585 0.24566,-0.1053 0.36843,-0.14427 0.12277,-0.039 0.22023,-0.0701 0.31173,-0.1383 0.0915,-0.0682 0.17724,-0.1734 0.263,-0.27085 0.0858,-0.0975 0.17151,-0.18711 0.2358,-0.26697 0.0643,-0.0799 0.10716,-0.15002 0.14813,-0.19685 0.041,-0.0468 0.08,-0.0702 0.15607,-0.0194 0.0761,0.0508 0.18914,0.17554 0.30412,0.30417 0.11498,0.12862 0.2319,0.26114 0.32544,0.36636 0.0935,0.10523 0.16371,0.1832 0.21042,0.24946 0.0467,0.0663 0.0701,0.12085 0.0253,0.1655 -0.0448,0.0446 -0.15783,0.0797 -0.2475,0.10897 -0.0897,0.0292 -0.15589,0.0526 -0.2203,0.10335 -0.0644,0.0507 -0.12677,0.12868 -0.18523,0.20077 -0.0585,0.0721 -0.11304,0.13838 -0.19092,0.19485 -0.0779,0.0565 -0.17922,0.10325 -0.25137,0.14614 -0.0721,0.0429 -0.11504,0.0819 -0.156,0.15797 -0.041,0.0761 -0.0799,0.18912 -0.14032,0.28649 -0.0604,0.0974 -0.14224,0.17921 -0.226,0.24544 -0.0838,0.0662 -0.16952,0.11691 -0.2514,0.17539 -0.0819,0.0585 -0.15984,0.12474 -0.22607,0.17346 -0.0662,0.0487 -0.12076,0.0799 -0.20059,0.0975 -0.0798,0.0176 -0.18507,0.0215 -0.28255,0.0332 -0.0975,0.0117 -0.18709,0.0312 -0.24179,0.0644 -0.0547,0.0332 -0.0742,0.08 -0.0546,0.14439 0.0196,0.0644 0.0781,0.14627 0.14825,0.23981 0.0702,0.0935 0.15202,0.19878 0.23191,0.30597 0.0799,0.10719 0.15785,0.21633 0.23971,0.32546 0.0819,0.10912 0.16761,0.21827 0.26508,0.31372 0.0975,0.0955 0.20662,0.17731 0.29232,0.25919 0.0857,0.0819 0.14809,0.16375 0.19285,0.25145 0.0448,0.0877 0.0721,0.18124 0.072,0.28057 -7e-5,0.0993 -0.0274,0.20457 -0.0936,0.29411 -0.0662,0.0895 -0.17146,0.16359 -0.27086,0.23571 -0.0994,0.0721 -0.19294,0.14226 -0.29039,0.21827 -0.0974,0.076 -0.19879,0.15786 -0.30401,0.2358 -0.10522,0.0779 -0.21436,0.15201 -0.31375,0.22022 -0.0994,0.0682 -0.18904,0.13057 -0.28059,0.17733 -0.0915,0.0468 -0.18509,0.0779 -0.28833,0.0994 -0.10325,0.0215 -0.21629,0.0332 -0.31956,0.0332 -0.10327,2e-5 -0.19679,-0.0117 -0.27669,-0.0428 -0.0799,-0.0311 -0.14616,-0.0818 -0.21047,-0.13049 -0.0643,-0.0487 -0.12669,-0.0955 -0.18513,-0.12675 -0.0584,-0.0312 -0.11302,-0.0469 -0.16966,-0.0352 -0.0566,0.0116 -0.11511,0.0506 -0.15025,0.10723 -0.0351,0.0566 -0.0468,0.13072 -0.0546,0.22624 -0.008,0.0955 -0.0117,0.21245 0.0118,0.31575 0.0235,0.1033 0.0742,0.19297 0.13653,0.2982 0.0624,0.10523 0.13642,0.22607 0.21632,0.36248 0.0799,0.13642 0.16565,0.28844 0.24748,0.45994 0.0818,0.1715 0.15978,0.36248 0.23774,0.53983 0.078,0.17734 0.15592,0.34104 0.22607,0.495 0.0701,0.15395 0.13251,0.29817 0.14607,0.45402 0.0136,0.15585 -0.0215,0.32346 -0.0741,0.44027 -0.0526,0.11682 -0.12276,0.18309 -0.22596,0.23179 -0.10321,0.0487 -0.23961,0.0799 -0.30792,0.0955 -0.0683,0.0156 -0.0683,0.0156 -0.1461,0.01 z"
       id="path1143"
       inkscape:path-effect="#path-effect1145"
       inkscape:original-d="m 102.06147,138.40478 c -0.15565,-0.0114 -0.31155,-0.0231 -0.46772,-0.0351 -0.17124,-0.0933 -0.34274,-0.18682 -0.5145,-0.28063 -0.0855,-0.12837 -0.17123,-0.25699 -0.25725,-0.38587 -0.0153,-0.15175 -0.0309,-0.30376 -0.0468,-0.45603 -0.0192,-0.20632 -0.0387,-0.41289 -0.0585,-0.61973 -0.0387,-0.2492 -0.0777,-0.49864 -0.11693,-0.74836 -0.066,-0.21021 -0.13226,-0.42068 -0.19878,-0.63142 -0.0465,-0.0504 -0.0933,-0.10108 -0.14032,-0.15201 -0.327149,-0.0114 -0.654547,-0.0231 -0.982217,-0.0351 -0.07769,-0.0621 -0.155642,-0.12446 -0.233861,-0.18709 0.0081,-0.0855 0.01586,-0.17123 0.02339,-0.25725 0.08602,-0.0426 0.171763,-0.0855 0.257247,-0.12862 0.06653,-0.0348 0.132785,-0.0699 0.198781,-0.10524 0.03145,-0.0894 0.06263,-0.17903 0.09354,-0.26894 -0.066,-0.066 -0.132257,-0.13225 -0.198782,-0.19878 -0.07379,-0.0504 -0.147847,-0.10107 -0.222168,-0.15201 -0.08938,-0.0192 -0.179028,-0.0387 -0.26894,-0.0585 -0.04651,0.0977 -0.09328,0.19514 -0.140316,0.29232 -0.0621,0.0509 -0.124461,0.10161 -0.187089,0.15201 -0.09328,0.0743 -0.186824,0.14838 -0.280633,0.22217 -0.120566,0.0276 -0.241391,0.0548 -0.362484,0.0819 -0.09718,-0.0465 -0.19462,-0.0933 -0.292326,-0.14032 -0.0699,-0.10497 -0.140052,-0.21021 -0.210475,-0.31571 -0.0699,-0.0855 -0.140052,-0.17123 -0.210475,-0.25725 -0.0075,-0.10107 -0.01532,-0.20241 -0.02339,-0.30401 0.04704,-0.0933 0.09381,-0.18683 0.140316,-0.28064 0.101607,-0.0309 0.202944,-0.0621 0.304019,-0.0935 0.140584,-0.0465 0.280898,-0.0933 0.42095,-0.14032 0.140584,-0.10497 0.280897,-0.21021 0.420949,-0.31571 0.03145,-0.0387 0.06263,-0.0777 0.09354,-0.11693 0.124992,-0.0621 0.249716,-0.12446 0.374177,-0.18709 0.07432,-0.0699 0.148377,-0.14005 0.222168,-0.21047 0.03924,-0.12447 0.07822,-0.24919 0.11693,-0.37418 0.04704,-0.0543 0.09381,-0.10887 0.140317,-0.1637 0.121095,-0.027 0.24192,-0.0543 0.362484,-0.0819 0.140584,-0.0309 0.280898,-0.0621 0.420948,-0.0935 0.0821,-0.0621 0.16397,-0.12446 0.24556,-0.18709 0.047,-0.0972 0.0938,-0.19462 0.14031,-0.29232 0.0509,-0.11667 0.10161,-0.2336 0.15201,-0.3508 0.0899,-0.10107 0.17956,-0.20241 0.26894,-0.30401 0.0743,-0.0387 0.14838,-0.0777 0.22217,-0.11693 0.0315,-0.0348 0.0626,-0.0699 0.0935,-0.10524 -0.0153,-0.10887 -0.0309,-0.21801 -0.0468,-0.32741 0.047,-0.066 0.0938,-0.13225 0.14032,-0.19878 0.1172,-0.0231 0.23412,-0.0465 0.35079,-0.0702 0.0626,2.7e-4 0.12499,2.7e-4 0.18709,0 0.0276,0.0704 0.0548,0.14058 0.0819,0.21048 0.0198,0.008 0.0392,0.0159 0.0585,0.0234 0.0899,-0.066 0.17955,-0.13225 0.26894,-0.19878 0.0119,-0.0465 0.0237,-0.0933 0.0351,-0.14031 0.16787,-0.0738 0.33547,-0.14785 0.50281,-0.22217 0.0509,0.0353 0.1016,0.0704 0.152,0.10524 -0.0231,0.0821 -0.0465,0.16396 -0.0701,0.24555 0.0197,0.0392 0.0392,0.0782 0.0585,0.11693 -0.0816,0.086 -0.16344,0.17176 -0.24555,0.25725 -0.0894,0.0821 -0.17903,0.16396 -0.26894,0.24555 -0.0855,0.0782 -0.17124,0.15617 -0.25725,0.23386 -0.0699,0.047 -0.14005,0.0938 -0.21047,0.14032 -0.0894,0.086 -0.17903,0.17176 -0.26894,0.25724 0.0353,0.047 0.0704,0.0938 0.10523,0.14032 0.15618,-0.0543 0.31208,-0.10887 0.46773,-0.1637 0.0977,-0.10108 0.19514,-0.20242 0.29232,-0.30402 0.0938,-0.10498 0.18735,-0.21021 0.28063,-0.31571 0.10161,-0.0933 0.20295,-0.18683 0.30402,-0.28064 0.0821,-0.10887 0.16397,-0.218 0.24556,-0.3274 0.0314,-0.0738 0.0626,-0.14785 0.0935,-0.22217 0.047,-0.0699 0.0938,-0.14005 0.14032,-0.21047 0.14838,-0.0465 0.29649,-0.0933 0.44433,-0.14032 0.0977,-0.0309 0.19515,-0.0621 0.29233,-0.0935 0.086,-0.10498 0.17176,-0.21021 0.25725,-0.31572 0.086,-0.0894 0.17176,-0.17903 0.25724,-0.26894 0.0431,-0.0699 0.086,-0.14005 0.12863,-0.21047 0.0392,-0.0231 0.0782,-0.0465 0.11693,-0.0702 0.1133,0.12499 0.22633,0.24972 0.3391,0.37418 0.11719,0.13279 0.23412,0.2653 0.35079,0.39756 0.0704,0.0782 0.14058,0.15617 0.21047,0.23386 0.0236,0.0548 0.047,0.1094 0.0702,0.1637 -0.11277,0.0353 -0.2258,0.0704 -0.3391,0.10524 -0.066,0.0237 -0.13226,0.047 -0.19878,0.0702 -0.0621,0.0782 -0.12446,0.15617 -0.18709,0.23386 -0.0543,0.0665 -0.10887,0.13279 -0.1637,0.19878 -0.10108,0.047 -0.20242,0.0938 -0.30402,0.14032 -0.0426,0.0392 -0.0855,0.0782 -0.12862,0.11693 -0.0387,0.1133 -0.0777,0.22633 -0.11693,0.3391 -0.0816,0.0821 -0.16344,0.16396 -0.24556,0.24555 -0.0855,0.0509 -0.17123,0.10161 -0.25725,0.15201 -0.0777,0.0665 -0.15564,0.13279 -0.23386,0.19878 -0.0543,0.0315 -0.10887,0.0626 -0.1637,0.0936 -0.10497,0.004 -0.21021,0.008 -0.31571,0.0117 -0.0894,0.0198 -0.17903,0.0392 -0.26894,0.0585 -0.0192,0.047 -0.0387,0.0938 -0.0585,0.14032 0.0587,0.0821 0.1172,0.16397 0.1754,0.24555 0.0821,0.10551 0.16397,0.21074 0.24555,0.31572 0.0782,0.1094 0.15618,0.21853 0.23386,0.3274 0.086,0.1094 0.17177,0.21854 0.25725,0.32741 0.1094,0.0821 0.21854,0.16396 0.32741,0.24555 0.0626,0.0821 0.12499,0.16397 0.18709,0.24556 0.0275,0.0938 0.0548,0.18735 0.0819,0.28063 -0.027,0.1055 -0.0543,0.21074 -0.0819,0.31571 -0.10498,0.0743 -0.21021,0.14838 -0.31572,0.22217 -0.0933,0.0704 -0.18682,0.14058 -0.28063,0.21047 -0.10108,0.0821 -0.20241,0.16397 -0.30402,0.24556 -0.10887,0.0743 -0.218,0.14837 -0.3274,0.22216 -0.0894,0.0626 -0.17903,0.12499 -0.26894,0.18709 -0.0933,0.0314 -0.18683,0.0626 -0.28064,0.0935 -0.11277,0.0119 -0.2258,0.0237 -0.3391,0.0351 -0.0933,-0.0114 -0.18682,-0.0231 -0.28063,-0.0351 -0.066,-0.0504 -0.13225,-0.10108 -0.19878,-0.15201 -0.0621,-0.0465 -0.12446,-0.0933 -0.18709,-0.14032 -0.0543,-0.0153 -0.10887,-0.0309 -0.1637,-0.0468 -0.0582,0.0392 -0.11667,0.0782 -0.1754,0.11693 -0.0114,0.0743 -0.0231,0.14838 -0.0351,0.22217 -0.004,0.11719 -0.008,0.23412 -0.0117,0.35079 0.0509,0.0899 0.10161,0.17956 0.15201,0.26894 0.0743,0.12109 0.14838,0.24192 0.22217,0.36248 0.086,0.15228 0.17176,0.30429 0.25725,0.45603 0.0782,0.19126 0.15617,0.38224 0.23386,0.57296 0.0782,0.16397 0.15617,0.32767 0.23386,0.49111 0.0626,0.14448 0.12499,0.28869 0.18709,0.43264 -0.0348,0.16787 -0.0699,0.33547 -0.10524,0.5028 -0.0699,0.0665 -0.14005,0.13279 -0.21048,0.19878 -0.13615,0.0315 -0.27257,0.0626 -0.40925,0.0935 z" /><path
       style="opacity:1;fill:#ffffff;fill-opacity:1;stroke:#000000;stroke-width:0.165;stroke-dasharray:none;stroke-opacity:1"
       d="m 94.227129,133.40016 c 0,0 4.127644,-7.17953 4.127644,-7.17953 0,0 8.150057,0.0351 8.150057,0.0351 0,0 4.06918,7.17953 4.06918,7.17953 0,0 -4.11596,7.09767 -4.11596,7.09767 0,0 -8.173436,0 -8.173436,0 0,0 -4.057485,-7.13275 -4.057485,-7.13275 z"
       id="path1205"
       inkscape:path-effect="#path-effect1207"
       inkscape:original-d="m 94.227129,133.40016 c 0,0 4.127644,-7.17953 4.127644,-7.17953 0,0 8.150057,0.0351 8.150057,0.0351 0,0 4.06918,7.17953 4.06918,7.17953 0,0 -4.11596,7.09767 -4.11596,7.09767 0,0 -8.173436,0 -8.173436,0 0,0 -4.057485,-7.13275 -4.057485,-7.13275 z" /><path
       sodipodi:type="star"
       style="fill:#000000;fill-opacity:1;stroke:#040404;stroke-width:0;stroke-opacity:1"
       id="path1"
       inkscape:flatsided="false"
       sodipodi:sides="8"
       sodipodi:cx="6.1284437"
       sodipodi:cy="3.9774005"
       sodipodi:r1="9.1972113"
       sodipodi:r2="3.3109961"
       sodipodi:arg1="1.0471976"
       sodipodi:arg2="1.4398966"
       inkscape:rounded="0"
       inkscape:randomized="0"
       d="M 10.727049,11.942419 6.5606155,7.2600706 3.7480298,12.861224 4.1128371,6.6041904 -1.8365751,8.5760058 2.8457737,4.4095724 -2.7553801,1.5969867 3.5016539,1.9617939 1.5298385,-3.9876183 5.6962719,0.69473053 8.5088576,-4.9064232 8.1440503,1.3506107 14.093463,-0.6212047 9.4111137,3.5452287 15.012267,6.3578144 8.7552336,5.9930071 Z"
       transform="matrix(0.65709835,-0.18295896,0.18295896,0.65709835,97.72179,131.84572)"
       inkscape:transform-center-y="-3.4008961e-06" /></g></svg>
